<!-- Uploaded to: SVG Repo, www.svgrepo.com, Generator: SVG Repo Mixer Tools -->

<svg>
	<symbol id="heart-icon" xmlns="http://www.w3.org/2000/svg" viewBox="0 0 24 24" width="20" height="20">
		<path d="M12.7692 6.70483C9.53846 2.01902 4 3.90245 4 8.68256C4 13.4627 13.2308 20 13.2308 20C13.2308 20 22 13.2003 22 8.68256C22 4.16479 16.9231 2.01903 13.6923 6.70483L13.2308 7.0791L12.7692 6.70483Z" stroke="#777" fill="none" stroke-width="2" stroke-linecap="round" stroke-linejoin="round"/>

	</symbol>

	<symbol id="heart-fill-icon" xmlns="http://www.w3.org/2000/svg" viewBox="0 0 24 24" width="20" height="20">
		<path d="M12.7692 6.70483C9.53846 2.01902 4 3.90245 4 8.68256C4 13.4627 13.2308 20 13.2308 20C13.2308 20 22 13.2003 22 8.68256C22 4.16479 16.9231 2.01903 13.6923 6.70483L13.2308 7.0791L12.7692 6.70483Z" fill="#777" stroke="#777" stroke-width="2" stroke-linecap="round" stroke-linejoin="round"/>
	</symbol>

	<symbol id="reply-icon" width="20" height="20" viewBox="0 0 24 24" fill="none" xmlns="http://www.w3.org/2000/svg">
		<path d="M15.4306 7.70172C7.55045 7.99826 3.43929 15.232 2.17021 19.3956C2.07701 19.7014 2.31139 20 2.63107 20C2.82491 20 3.0008 19.8828 3.08334 19.7074C6.04179 13.4211 12.7066 12.3152 15.514 12.5639C15.7583 12.5856 15.9333 12.7956 15.9333 13.0409V15.1247C15.9333 15.5667 16.4648 15.7913 16.7818 15.4833L20.6976 11.6784C20.8723 11.5087 20.8993 11.2378 20.7615 11.037L16.8456 5.32965C16.5677 4.92457 15.9333 5.12126 15.9333 5.61253V7.19231C15.9333 7.46845 15.7065 7.69133 15.4306 7.70172Z" fill="#777" stroke="#777" stroke-linecap="round" stroke-linejoin="round"/>
	</symbol>

	<symbol id="exit" width="20" height="20" viewBox="0 0 24 24" fill="none" xmlns="http://www.w3.org/2000/svg">
		<path d="M14 7.63636L14 4.5C14 4.22386 13.7761 4 13.5 4L4.5 4C4.22386 4 4 4.22386 4 4.5L4 19.5C4 19.7761 4.22386 20 4.5 20L13.5 20C13.7761 20 14 19.7761 14 19.5L14 16.3636" stroke="#777" stroke-width="2" stroke-linecap="round" stroke-linejoin="round"/>
		<path d="M10 12L21 12M21 12L18.0004 8.5M21 12L18 15.5" stroke="#777" stroke-width="2" stroke-linecap="round" stroke-linejoin="round"/>
	</symbol>


	<symbol id="pencil" width="20" height="20" viewBox="0 0 24 24" fill="none" xmlns="http://www.w3.org/2000/svg">
		<path d="M14.6716 6.763L5.58013 15.8544L5.41376 18.8492L8.40856 18.6829L17.5 9.59142M14.6716 6.763L16.0204 5.41421C16.8014 4.63316 18.0677 4.63316 18.8488 5.41421V5.41421C19.6298 6.19526 19.6298 7.46159 18.8488 8.24264V8.24264L17.5 9.59142M14.6716 6.763L17.5 9.59142" stroke="#777" stroke-width="2" stroke-linecap="round" stroke-linejoin="round"/>
	</symbol>


	<symbol id="new-document" width="20" height="20" viewBox="0 0 24 24" fill="none" xmlns="http://www.w3.org/2000/svg">
		<path d="M6 10H10.5C11.3284 10 12 9.32843 12 8.5V4" stroke="#777" stroke-width="1.5"/>
		<path fill-rule="evenodd" clip-rule="evenodd" d="M9.85355 3.73223C10.3224 3.26339 10.9583 3 11.6213 3H16.5C17.8807 3 19 4.11929 19 5.5V18.5C19 19.8807 17.8807 21 16.5 21H7.5C6.11929 21 5 19.8807 5 18.5V9.62132C5 8.95828 5.26339 8.3224 5.73223 7.85355L9.85355 3.73223ZM11.6213 5C11.4887 5 11.3615 5.05268 11.2678 5.14645L7.14645 9.26777C7.05268 9.36154 7 9.48871 7 9.62132V18.5C7 18.7761 7.22386 19 7.5 19H16.5C16.7761 19 17 18.7761 17 18.5V5.5C17 5.22386 16.7761 5 16.5 5H11.6213Z" fill="#777"/>
		<path d="M10 14.5H14M12 12.5V16.5" stroke="#777" stroke-width="1.5" stroke-linecap="round" stroke-linejoin="round"/>
	</symbol>

	<symbol id="visible" width="20" height="20" viewBox="0 0 24 24" fill="none" xmlns="http://www.w3.org/2000/svg">
		<path d="M12 7C7.60743 7 4.49054 10.5081 3.41345 11.9208C3.15417 12.2609 3.17881 12.7211 3.4696 13.0347C4.66556 14.3243 8.01521 17.5 12 17.5C15.9848 17.5 19.3344 14.3243 20.5304 13.0347C20.8212 12.7211 20.8458 12.2609 20.5865 11.9208C19.5095 10.5081 16.3926 7 12 7Z" stroke="#777" stroke-width="2"/>
		<path d="M14 12C14 13.1046 13.1046 14 12 14C10.8954 14 10 13.1046 10 12C10 10.8954 10.8954 10 12 10C13.1046 10 14 10.8954 14 12Z" fill="#777"/>
	</symbol>

	<symbol id="sloth" width="40" height="40" viewBox="0 0 1024 1024" class="icon" version="1.1" xmlns="http://www.w3.org/2000/svg" fill="#6b6b6b" stroke="#6b6b6b">
	
		<g id="SVGRepo_bgCarrier" stroke-width="0"/>
		<g id="SVGRepo_tracerCarrier" stroke-linecap="round" stroke-linejoin="round" stroke="#CCCCCC" stroke-width="98.304">
		<path d="M762.5 421.2c111.9 17.2 198 114.1 198 230.8 0 128.8-104.8 233.5-233.5 233.5-28.9 0-56.6-5.3-82.2-15H161.5c-31.3 0-56.7-25.5-56.7-56.8 0-17.5 7.8-33.2 20.5-43.7-15.4-28.1-23.5-59.6-23.5-92.1 0-51.4 20.7-100.8 57.1-136.8V324.5c0-3.9 0.3-7.8 0.7-11.6h-76c-11.7 0-21.1-9.4-21.1-21.1v-136c0-11.7 9.5-21.1 21.1-21.1h752.7c11.7 0 21.1 9.5 21.1 21.1v136c0 11.7-9.5 21.1-21.1 21.1h-73.8v108.3z" fill="#866565"/>
		<path d="M833.6 717.4l73 0.3c-13.4 36.6-37.7 68-69 90.3-31.3 22.3-69.5 35.4-110.7 35.4-82.4 0-152.9-52.4-179.7-125.7l73.2-0.3c40.8-0.1 74-33.4 73.9-74.3-0.1-40.8-33.3-73.9-74.1-73.9h-0.2l-65.6 0.2c8.2-17.1 18.9-32.7 31.6-46.6l33.8-0.1h0.4c35.6 0 69.2 15.7 92.2 43.1 0.7 0.8 1.5 1.6 2.3 2.3 3.6 3 7.9 4.5 12.2 4.5 5.4 0 10.8-2.3 14.6-6.8 23-27.4 56.6-43.1 92.2-43.1l34 0.1c6.3 6.9 12.2 14.3 17.5 22.1 5.3 7.8 10 16 14.1 24.5l-65.3-0.2h-0.2c-40.8 0-74 33.1-74.1 73.9 0 40.8 33.1 74.1 73.9 74.3z" fill="#ad9d85"/>
		<path d="M815.1 176.9v93.7H616.7c-8.1-12.1-18.9-22.2-31.4-29.6v-64.1h229.8z" fill="#95847e"/>
		<path d="M740.3 461.2c29 2 56.2 10.5 80.2 24-34.9 2.9-67.6 17.3-93.4 40.9-12.9-11.8-27.6-21.3-43.4-28.2-15.8-6.9-32.8-11.2-50.3-12.7 27.7-15.6 59.6-24.5 93.5-24.5 4.5 0.1 9 0.2 13.4 0.5z" fill="#d5c3ae"/>
		<path d="M774 756.9c8.7 5.9 11.1 17.7 5.2 26.4-11.4 17.1-30.6 27.3-51.1 27.3-20.6 0-39.7-10.2-51.1-27.3-5.8-8.7-3.5-20.5 5.2-26.4 8.7-5.8 20.5-3.5 26.4 5.2 4.4 6.5 11.7 10.4 19.5 10.4 7.8 0 15.1-3.9 19.5-10.4 5.9-8.7 17.7-11 26.4-5.2zM736.1 674.1c10.5 0 19 8.5 19 19s-8.5 19-19 19h-15.3c-10.5 0-19-8.5-19-19s8.5-19 19-19h15.3z" fill="#866565"/>
		<path d="M720.3 312.9v105.7c-30.9 0.9-60.3 7.8-87.1 19.6V324.5c0-3.9-0.3-7.8-0.7-11.6h87.8z" fill="#ad9d85"/>
		<path d="M656.3 643.2c0.1 19.9-16.1 36.1-36 36.2l-82.7 0.3c-1.3-9-2-18.2-2-27.6 0-15.3 1.8-30.3 5.2-44.6l79.2-0.2h0.1c20-0.1 36.2 16 36.2 35.9z" fill="#d5c3ae"/>
		<path d="M619.7 622.3c11.7 0 21.1 9.4 21.1 21.1 0 11.7-9.4 21.1-21.1 21.1-11.7 0-21.1-9.5-21.1-21.1 0-11.6 9.5-21.1 21.1-21.1z" fill="#866565"/>
		<path d="M590.9 324.5v137.9c-59 42.4-97.4 111.6-97.4 189.6 0 70.3 31.2 133.5 80.6 176.3H161.5c-8 0-14.5-6.5-14.5-14.5 0-7.1 5.1-13.1 12.1-14.2 7.2-1.2 13.3-6 16.1-12.8 2.8-6.8 1.8-14.5-2.5-20.5C154 740.5 144 710 144 678c0-42.7 18.3-83.5 50.1-112 4.5-4 7-9.7 7-15.7V324.4c0-30.1 24.4-54.5 54.5-54.5s54.5 24.4 54.5 54.5v182.1c0 11.7 9.5 21.1 21.1 21.1H460.6c11.7 0 21.1-9.4 21.1-21.1v-182c0-30.1 24.4-54.5 54.5-54.5s54.7 24.4 54.7 54.5z" fill="#ad9d85"/>
		<path d="M547.3 176.9v51.4c-3.6-0.4-7.2-0.6-10.9-0.6s-7.3 0.2-10.9 0.6v-51.4h21.8zM487.4 176.9V241c-12.6 7.4-23.3 17.5-31.4 29.6H336c-8.1-12.1-18.9-22.2-31.4-29.6v-64.1h182.8z" fill="#95847e"/>
		<path d="M351.7 312.9h88.6c-0.5 3.8-0.7 7.6-0.7 11.6v161h-87.1v-161c-0.1-4-0.3-7.8-0.8-11.6z" fill="#ad9d85"/>
		<path d="M418.5 754.4c11.7 0 21.1 9.5 21.1 21.1 0 11.7-9.5 21.1-21.1 21.1H279.2c-11.7 0-21.1-9.5-21.1-21.1 0-11.7 9.4-21.1 21.1-21.1h139.3z" fill="#866565"/>
		<path d="M266.6 176.9v51.4c-3.6-0.4-7.2-0.6-10.9-0.6s-7.3 0.2-10.9 0.6v-51.4h21.8zM206.7 176.9V241c-12.6 7.4-23.3 17.5-31.4 29.6h-70.6v-93.7h102z" fill="#95847e"/>
		<path d="M913 607.5c3.4 14.3 5.2 29.2 5.2 44.6 0 9.4-0.7 18.6-2 27.6l-82.5-0.3c-19.9 0-36-16.3-36-36.1 0.1-19.9 16.2-36 36.1-36h0.1l79.1 0.2z" fill="#d5c3ae"/>
		<path d="M918.2 652c0-15.3-1.8-30.3-5.2-44.6l-79-0.2h-0.1c-19.8 0-36 16.1-36.1 36-0.1 19.9 16.1 36.1 36 36.1l82.5 0.3c1.2-9 1.9-18.2 1.9-27.6z" fill="#d5c3ae"/>
		<path d="M855.5 643.5c0-11.7-9.5-21.1-21.1-21.1-11.7 0-21.1 9.4-21.1 21.1 0 11.7 9.4 21.1 21.1 21.1 11.6 0 21.1-9.5 21.1-21.1z" fill="#866565"/>
		<path d="M834.4 622.3c11.7 0 21.1 9.4 21.1 21.1 0 11.7-9.5 21.1-21.1 21.1-11.7 0-21.1-9.5-21.1-21.1-0.1-11.6 9.4-21.1 21.1-21.1z" fill="#866565"/>
		</g>
		<g id="SVGRepo_iconCarrier">
		<path d="M762.5 421.2c111.9 17.2 198 114.1 198 230.8 0 128.8-104.8 233.5-233.5 233.5-28.9 0-56.6-5.3-82.2-15H161.5c-31.3 0-56.7-25.5-56.7-56.8 0-17.5 7.8-33.2 20.5-43.7-15.4-28.1-23.5-59.6-23.5-92.1 0-51.4 20.7-100.8 57.1-136.8V324.5c0-3.9 0.3-7.8 0.7-11.6h-76c-11.7 0-21.1-9.4-21.1-21.1v-136c0-11.7 9.5-21.1 21.1-21.1h752.7c11.7 0 21.1 9.5 21.1 21.1v136c0 11.7-9.5 21.1-21.1 21.1h-73.8v108.3z" fill="#866565"/>
		<path d="M833.6 717.4l73 0.3c-13.4 36.6-37.7 68-69 90.3-31.3 22.3-69.5 35.4-110.7 35.4-82.4 0-152.9-52.4-179.7-125.7l73.2-0.3c40.8-0.1 74-33.4 73.9-74.3-0.1-40.8-33.3-73.9-74.1-73.9h-0.2l-65.6 0.2c8.2-17.1 18.9-32.7 31.6-46.6l33.8-0.1h0.4c35.6 0 69.2 15.7 92.2 43.1 0.7 0.8 1.5 1.6 2.3 2.3 3.6 3 7.9 4.5 12.2 4.5 5.4 0 10.8-2.3 14.6-6.8 23-27.4 56.6-43.1 92.2-43.1l34 0.1c6.3 6.9 12.2 14.3 17.5 22.1 5.3 7.8 10 16 14.1 24.5l-65.3-0.2h-0.2c-40.8 0-74 33.1-74.1 73.9 0 40.8 33.1 74.1 73.9 74.3z" fill="#ad9d85"/>
		<path d="M815.1 176.9v93.7H616.7c-8.1-12.1-18.9-22.2-31.4-29.6v-64.1h229.8z" fill="#95847e"/>
		<path d="M740.3 461.2c29 2 56.2 10.5 80.2 24-34.9 2.9-67.6 17.3-93.4 40.9-12.9-11.8-27.6-21.3-43.4-28.2-15.8-6.9-32.8-11.2-50.3-12.7 27.7-15.6 59.6-24.5 93.5-24.5 4.5 0.1 9 0.2 13.4 0.5z" fill="#d5c3ae"/>
		<path d="M774 756.9c8.7 5.9 11.1 17.7 5.2 26.4-11.4 17.1-30.6 27.3-51.1 27.3-20.6 0-39.7-10.2-51.1-27.3-5.8-8.7-3.5-20.5 5.2-26.4 8.7-5.8 20.5-3.5 26.4 5.2 4.4 6.5 11.7 10.4 19.5 10.4 7.8 0 15.1-3.9 19.5-10.4 5.9-8.7 17.7-11 26.4-5.2zM736.1 674.1c10.5 0 19 8.5 19 19s-8.5 19-19 19h-15.3c-10.5 0-19-8.5-19-19s8.5-19 19-19h15.3z" fill="#866565"/>
		<path d="M720.3 312.9v105.7c-30.9 0.9-60.3 7.8-87.1 19.6V324.5c0-3.9-0.3-7.8-0.7-11.6h87.8z" fill="#ad9d85"/>
		<path d="M656.3 643.2c0.1 19.9-16.1 36.1-36 36.2l-82.7 0.3c-1.3-9-2-18.2-2-27.6 0-15.3 1.8-30.3 5.2-44.6l79.2-0.2h0.1c20-0.1 36.2 16 36.2 35.9z" fill="#d5c3ae"/>
		<path d="M619.7 622.3c11.7 0 21.1 9.4 21.1 21.1 0 11.7-9.4 21.1-21.1 21.1-11.7 0-21.1-9.5-21.1-21.1 0-11.6 9.5-21.1 21.1-21.1z" fill="#866565"/>
		<path d="M590.9 324.5v137.9c-59 42.4-97.4 111.6-97.4 189.6 0 70.3 31.2 133.5 80.6 176.3H161.5c-8 0-14.5-6.5-14.5-14.5 0-7.1 5.1-13.1 12.1-14.2 7.2-1.2 13.3-6 16.1-12.8 2.8-6.8 1.8-14.5-2.5-20.5C154 740.5 144 710 144 678c0-42.7 18.3-83.5 50.1-112 4.5-4 7-9.7 7-15.7V324.4c0-30.1 24.4-54.5 54.5-54.5s54.5 24.4 54.5 54.5v182.1c0 11.7 9.5 21.1 21.1 21.1H460.6c11.7 0 21.1-9.4 21.1-21.1v-182c0-30.1 24.4-54.5 54.5-54.5s54.7 24.4 54.7 54.5z" fill="#ad9d85"/>
		<path d="M547.3 176.9v51.4c-3.6-0.4-7.2-0.6-10.9-0.6s-7.3 0.2-10.9 0.6v-51.4h21.8zM487.4 176.9V241c-12.6 7.4-23.3 17.5-31.4 29.6H336c-8.1-12.1-18.9-22.2-31.4-29.6v-64.1h182.8z" fill="#95847e"/>
		<path d="M351.7 312.9h88.6c-0.5 3.8-0.7 7.6-0.7 11.6v161h-87.1v-161c-0.1-4-0.3-7.8-0.8-11.6z" fill="#ad9d85"/>
		<path d="M418.5 754.4c11.7 0 21.1 9.5 21.1 21.1 0 11.7-9.5 21.1-21.1 21.1H279.2c-11.7 0-21.1-9.5-21.1-21.1 0-11.7 9.4-21.1 21.1-21.1h139.3z" fill="#866565"/>
		<path d="M266.6 176.9v51.4c-3.6-0.4-7.2-0.6-10.9-0.6s-7.3 0.2-10.9 0.6v-51.4h21.8zM206.7 176.9V241c-12.6 7.4-23.3 17.5-31.4 29.6h-70.6v-93.7h102z" fill="#95847e"/>
		<path d="M913 607.5c3.4 14.3 5.2 29.2 5.2 44.6 0 9.4-0.7 18.6-2 27.6l-82.5-0.3c-19.9 0-36-16.3-36-36.1 0.1-19.9 16.2-36 36.1-36h0.1l79.1 0.2z" fill="#d5c3ae"/>
		<path d="M918.2 652c0-15.3-1.8-30.3-5.2-44.6l-79-0.2h-0.1c-19.8 0-36 16.1-36.1 36-0.1 19.9 16.1 36.1 36 36.1l82.5 0.3c1.2-9 1.9-18.2 1.9-27.6z" fill="#d5c3ae"/>
		<path d="M855.5 643.5c0-11.7-9.5-21.1-21.1-21.1-11.7 0-21.1 9.4-21.1 21.1 0 11.7 9.4 21.1 21.1 21.1 11.6 0 21.1-9.5 21.1-21.1z" fill="#866565"/>
		<path d="M834.4 622.3c11.7 0 21.1 9.4 21.1 21.1 0 11.7-9.5 21.1-21.1 21.1-11.7 0-21.1-9.5-21.1-21.1-0.1-11.6 9.4-21.1 21.1-21.1z" fill="#866565"/>
		</g>


	</symbol>



	<symbol id="search" width="30" height="30" viewBox="-5.76 -5.76 35.52 35.52" fill="none" xmlns="http://www.w3.org/2000/svg" stroke="#928b8b" >
		<g id="SVGRepo_bgCarrier" stroke-width="0"></g><g id="SVGRepo_tracerCarrier" stroke-linecap="round" stroke-linejoin="round"></g><g id="SVGRepo_iconCarrier"> <path d="M21.2929 22.7071C21.6834 23.0976 22.3166 23.0976 22.7071 22.7071C23.0976 22.3166 23.0976 21.6834 22.7071 21.2929L21.2929 22.7071ZM17 10C17 13.866 13.866 17 10 17V19C14.9706 19 19 14.9706 19 10H17ZM10 17C6.13401 17 3 13.866 3 10H1C1 14.9706 5.02944 19 10 19V17ZM3 10C3 6.13401 6.13401 3 10 3V1C5.02944 1 1 5.02944 1 10H3ZM10 3C13.866 3 17 6.13401 17 10H19C19 5.02944 14.9706 1 10 1V3ZM14.7929 16.2071L21.2929 22.7071L22.7071 21.2929L16.2071 14.7929L14.7929 16.2071Z" fill="#ababab"></path> </g>	
	</symbol>

	<symbol id="circle-x" width="30" height="30" viewBox="0 0 24 24"  xmlns="http://www.w3.org/2000/svg">
		<g id="SVGRepo_bgCarrier" stroke-width="0"/>
		<g id="SVGRepo_tracerCarrier" stroke-linecap="round" stroke-linejoin="round"/>
		<g id="SVGRepo_iconCarrier"> <path fill-rule="evenodd" clip-rule="evenodd" d="M16.9498 8.46447C17.3404 8.07394 17.3404 7.44078 16.9498 7.05025C16.5593 6.65973 15.9261 6.65973 15.5356 7.05025L12.0001 10.5858L8.46455 7.05025C8.07402 6.65973 7.44086 6.65973 7.05033 7.05025C6.65981 7.44078 6.65981 8.07394 7.05033 8.46447L10.5859 12L7.05033 15.5355C6.65981 15.9261 6.65981 16.5592 7.05033 16.9497C7.44086 17.3403 8.07402 17.3403 8.46455 16.9497L12.0001 13.4142L15.5356 16.9497C15.9261 17.3403 16.5593 17.3403 16.9498 16.9497C17.3404 16.5592 17.3404 15.9261 16.9498 15.5355L13.4143 12L16.9498 8.46447Z" fill="#333"/> </g>
		

	</symbol>

	<symbol id="unfollow" width="30px" height="30px" viewBox="-2.4 -2.4 28.80 28.80" fill="none" xmlns="http://www.w3.org/2000/svg" stroke="#ababab">
		<g id="SVGRepo_bgCarrier" stroke-width="0">
		<rect x="-2.4" y="-2.4" width="28.80" height="28.80" rx="14.4" fill="#dbcfcd" strokewidth="0"/>
		</g>
		<g id="SVGRepo_tracerCarrier" stroke-linecap="round" stroke-linejoin="round"/>
		<g id="SVGRepo_iconCarrier"> <path fill-rule="evenodd" clip-rule="evenodd" d="M13.1043 4.17701L14.9317 7.82776C15.1108 8.18616 15.4565 8.43467 15.8573 8.49218L19.9453 9.08062C20.9554 9.22644 21.3573 10.4505 20.6263 11.1519L17.6702 13.9924C17.3797 14.2718 17.2474 14.6733 17.3162 15.0676L18.0138 19.0778C18.1856 20.0698 17.1298 20.8267 16.227 20.3574L12.5732 18.4627C12.215 18.2768 11.786 18.2768 11.4268 18.4627L7.773 20.3574C6.87023 20.8267 5.81439 20.0698 5.98724 19.0778L6.68385 15.0676C6.75257 14.6733 6.62033 14.2718 6.32982 13.9924L3.37368 11.1519C2.64272 10.4505 3.04464 9.22644 4.05466 9.08062L8.14265 8.49218C8.54354 8.43467 8.89028 8.18616 9.06937 7.82776L10.8957 4.17701C11.3477 3.27433 12.6523 3.27433 13.1043 4.17701Z" stroke="#9c9c9c" stroke-width="1.5" stroke-linecap="round" stroke-linejoin="round"/> </g>

	</symbol>


	<symbol id="follow" width="30px" height="30px" viewBox="-2.4 -2.4 28.80 28.80" fill="none" xmlns="http://www.w3.org/2000/svg" stroke="#ababab">
		<g id="SVGRepo_bgCarrier" stroke-width="0"/>
		<g id="SVGRepo_tracerCarrier" stroke-linecap="round" stroke-linejoin="round"/>
		<g id="SVGRepo_iconCarrier"> <path fill-rule="evenodd" clip-rule="evenodd" d="M13.1043 4.17701L14.9317 7.82776C15.1108 8.18616 15.4565 8.43467 15.8573 8.49218L19.9453 9.08062C20.9554 9.22644 21.3573 10.4505 20.6263 11.1519L17.6702 13.9924C17.3797 14.2718 17.2474 14.6733 17.3162 15.0676L18.0138 19.0778C18.1856 20.0698 17.1298 20.8267 16.227 20.3574L12.5732 18.4627C12.215 18.2768 11.786 18.2768 11.4268 18.4627L7.773 20.3574C6.87023 20.8267 5.81439 20.0698 5.98724 19.0778L6.68385 15.0676C6.75257 14.6733 6.62033 14.2718 6.32982 13.9924L3.37368 11.1519C2.64272 10.4505 3.04464 9.22644 4.05466 9.08062L8.14265 8.49218C8.54354 8.43467 8.89028 8.18616 9.06937 7.82776L10.8957 4.17701C11.3477 3.27433 12.6523 3.27433 13.1043 4.17701Z" stroke="#bfbfbf" stroke-width="1.5" stroke-linecap="round" stroke-linejoin="round"/> </g>
	</symbol>
</svg>
