<!-- Uploaded to: SVG Repo, www.svgrepo.com, Generator: SVG Repo Mixer Tools -->
<svg>
	<symbol id="heart-icon" xmlns="http://www.w3.org/2000/svg" viewBox="0 0 24 24" width="20" height="20">
		<path d="M12.7692 6.70483C9.53846 2.01902 4 3.90245 4 8.68256C4 13.4627 13.2308 20 13.2308 20C13.2308 20 22 13.2003 22 8.68256C22 4.16479 16.9231 2.01903 13.6923 6.70483L13.2308 7.0791L12.7692 6.70483Z" stroke="#000000" fill="none" stroke-width="2" stroke-linecap="round" stroke-linejoin="round"/>

	</symbol>

	<symbol id="heart-fill-icon" xmlns="http://www.w3.org/2000/svg" viewBox="0 0 24 24" width="20" height="20">
		<path d="M12.7692 6.70483C9.53846 2.01902 4 3.90245 4 8.68256C4 13.4627 13.2308 20 13.2308 20C13.2308 20 22 13.2003 22 8.68256C22 4.16479 16.9231 2.01903 13.6923 6.70483L13.2308 7.0791L12.7692 6.70483Z" fill="#000000" stroke="#000000" stroke-width="2" stroke-linecap="round" stroke-linejoin="round"/>
	</symbol>

	<symbol id="reply-icon" width="20" height="20" viewBox="0 0 24 24" fill="none" xmlns="http://www.w3.org/2000/svg">
		<path d="M15.4306 7.70172C7.55045 7.99826 3.43929 15.232 2.17021 19.3956C2.07701 19.7014 2.31139 20 2.63107 20C2.82491 20 3.0008 19.8828 3.08334 19.7074C6.04179 13.4211 12.7066 12.3152 15.514 12.5639C15.7583 12.5856 15.9333 12.7956 15.9333 13.0409V15.1247C15.9333 15.5667 16.4648 15.7913 16.7818 15.4833L20.6976 11.6784C20.8723 11.5087 20.8993 11.2378 20.7615 11.037L16.8456 5.32965C16.5677 4.92457 15.9333 5.12126 15.9333 5.61253V7.19231C15.9333 7.46845 15.7065 7.69133 15.4306 7.70172Z" fill="#000000" stroke="#000000" stroke-linecap="round" stroke-linejoin="round"/>

	</symbol>

</svg>